<?xml version="1.0" encoding="UTF-8"?>
<!-- Generator: visioncortex VTracer 0.6.0 -->
<svg version="1.1" xmlns="http://www.w3.org/2000/svg" width="512" height="512">
<path d="M0 0 C168.96 0 337.92 0 512 0 C512 168.96 512 337.92 512 512 C343.03999999999996 512 174.07999999999998 512 0 512 C0 343.03999999999996 0 174.07999999999998 0 0 Z " fill="#040F2C" transform="translate(0,0)"/>
<path d="M0 0 C2.5625 0.3125 2.5625 0.3125 4.25 1.5 C5.5625 3.3125 5.5625 3.3125 6.078125 5.5859375 C8.429181670045466 9.90445738339929 12.384932253160287 11.47382088305568 16.625 13.75 C18.28425889107382 14.662267045210001 19.94181860748455 15.577631485662152 21.59765625 16.49609375 C22.418063964843782 16.949843750000014 23.238471679687507 17.40359375 24.083740234375 17.87109375 C27.3749288919675 19.784929841246537 30.498849701409824 21.907405117400117 33.61962890625 24.085693359375 C36.121305142618155 25.665351952960066 38.761066087863014 26.4004052379089 41.5625 27.3125 C42.91750919311556 28.623799219144075 44.249213434332205 29.959416871736238 45.5625 31.3125 C50.62094033199014 34.85340823239312 54.26293068359058 35.78096450477955 60.42578125 35.94140625 C61.13089843749998 36.063867187499994 61.836015625000016 36.18632812499999 62.5625 36.3125 C64.99195159945691 39.95667739918537 64.72429574645344 42.024912718984126 64.5625 46.3125 C58.41015625000006 46.41015625 58.41015625000006 46.41015625 56.5625 46.3125 C56.232500000000016 45.982500000000016 55.90250000000003 45.6525 55.5625 45.3125 C49.225302282106895 45.72805394871432 43.38145715955346 47.019477717193894 37.26171875 48.69140625 C34.5625 49.3125 34.5625 49.3125 30.5625 49.3125 C31.55250000000001 51.29250000000002 31.55250000000001 51.29250000000002 32.5625 53.3125 C31.613749999999982 52.982500000000016 30.66500000000002 52.6525 29.6875 52.3125 C26.791875482117177 51.210908090965404 26.791875482117177 51.210908090965404 24.5625 51.3125 C24.01078124999998 50.5764453125 23.459062500000016 49.840390625 22.890625 49.08203125 C20.062076819063975 45.717197927376446 17.14101622445787 44.050435010456624 13.3125 42 C12.662812499999973 41.640996093750005 12.013125000000002 41.28199218750001 11.34375 40.912109375 C9.755202471504163 40.036072135020675 8.159548575608028 39.172941946484 6.5625 38.3125 C9.05342810595289 37.067035947023555 9.973307331211629 37.53574219936348 12.5625 38.3125 C12.5625 37.6525 12.5625 36.99250000000001 12.5625 36.3125 C13.222499999999968 36.3125 13.882499999999993 36.3125 14.5625 36.3125 C12.244881600666474 30.57620196842703 9.415786109539965 25.258189104050075 6.375 19.875 C5.9115820312500205 19.04806640625 5.448164062499984 18.221132812500002 4.970703125 17.369140625 C3.8377373625176574 15.348490347583066 2.701620079923316 13.329685151348087 1.5625 11.3125 C0.5724999999999909 11.3125 -0.4175000000000182 11.3125 -1.4375 11.3125 C-2.7554901856576066 13.72631346074877 -4.067009184214726 16.143275961231296 -5.375 18.5625 C-5.748183593750014 19.2444140625 -6.121367187499999 19.926328124999998 -6.505859375 20.62890625 C-6.863574218749989 21.29277343749999 -7.221289062500006 21.956640625000006 -7.58984375 22.640625 C-8.08472290039063 23.55183105468751 -8.08472290039063 23.55183105468751 -8.589599609375 24.4814453125 C-9.511147972567016 26.318736252243582 -9.511147972567016 26.318736252243582 -9.9638671875 28.448974609375 C-10.565501535926558 30.816126661715202 -11.694488770734694 31.638690209117442 -13.4375 33.3125 C-14.633490684373754 35.344822420696715 -14.633490684373754 35.344822420696715 -15.625 37.5 C-15.969179687500002 38.215429687500006 -16.313359375000005 38.93085937500001 -16.66796875 39.66796875 C-17.048886718749998 40.482011718750016 -17.048886718749998 40.482011718750016 -17.4375 41.3125 C-14.797500000000014 40.6525 -12.157499999999999 39.99250000000001 -9.4375 39.3125 C-9.4375 39.9725 -9.4375 40.63249999999999 -9.4375 41.3125 C-10.468105468749997 41.80169921875 -10.468105468749997 41.80169921875 -11.51953125 42.30078125 C-12.420585937499993 42.73777343750001 -13.321640624999986 43.17476562499999 -14.25 43.625 C-15.143320312500009 44.0542578125 -16.03664062499999 44.483515624999995 -16.95703125 44.92578125 C-19.24035976135059 46.20228774059757 -20.635148538869288 47.466848804067354 -22.4375 49.3125 C-23.097499999999997 49.3125 -23.757499999999993 49.3125 -24.4375 49.3125 C-24.4375 49.9725 -24.4375 50.63249999999999 -24.4375 51.3125 C-25.489374999999995 51.74562499999999 -26.54124999999999 52.17875000000001 -27.625 52.625 C-29.984796414843174 53.62815232209931 -32.03655824564203 54.67193494738521 -34.25 56 C-36.4375 57.3125 -36.4375 57.3125 -38.4375 57.3125 C-38.67210937499999 57.936406250000005 -38.90671875000001 58.56031250000001 -39.1484375 59.203125 C-40.80573075263408 61.91505941340125 -42.051659903380624 62.20225997239447 -45.0625 63.0625 C-45.879765625000005 63.30484375 -46.69703125000001 63.54718750000001 -47.5390625 63.796875 C-48.16554687499999 63.96703124999999 -48.79203125000001 64.13718750000001 -49.4375 64.3125 C-49.8604736328125 63.54788452148438 -49.8604736328125 63.54788452148438 -50.2919921875 62.767822265625 C-51.57715412053264 60.46247752866779 -52.881960960109495 58.16886143104358 -54.1875 55.875 C-54.63093749999999 55.07255859374999 -55.074375 54.270117187500006 -55.53125 53.443359375 C-56.18867187500001 52.297705078125006 -56.18867187500001 52.297705078125006 -56.859375 51.12890625 C-57.25737304687499 50.42193603515625 -57.655371093750006 49.7149658203125 -58.0654296875 48.986572265625 C-59.73396134082566 46.95078551351574 -60.876434329148935 46.6766664011526 -63.4375 46.3125 C-64.0625 42.9375 -64.0625 42.9375 -64.4375 39.3125 C-63.7775 38.6525 -63.11750000000001 37.99250000000001 -62.4375 37.3125 C-61.26832031250001 37.384687499999984 -60.09914062499999 37.456875 -58.89453125 37.53125 C-53.267000771700566 37.65262562927808 -49.66172456085667 34.862713936638215 -45.125 31.8125 C-43.290887803900375 30.628677651855327 -41.45484554238237 29.447841828377136 -39.6171875 28.26953125 C-38.634599609375016 27.634829101562502 -37.65201171875 27.000126953125005 -36.6396484375 26.34619140625 C-31.349102801366314 22.986154417153216 -25.96900639818088 19.779306760053487 -20.577545166015625 16.58447265625 C-18.765189506178245 15.509013514094505 -16.957082647266958 14.426656842354106 -15.149169921875 13.34375 C-14.044201660156261 12.687617187499995 -12.939233398437494 12.031484374999991 -11.80078125 11.35546875 C-10.81376220703126 10.767897949218764 -9.826743164062492 10.180327148437499 -8.809814453125 9.574951171875 C-6.4375 8.3125 -6.4375 8.3125 -4.4375 8.3125 C-4.478749999999991 7.36375000000001 -4.52000000000001 6.414999999999992 -4.5625 5.4375 C-4.409408024640186 1.6102006160042777 -3.876923266778533 0.4970414444587732 0 0 Z " fill="#0C1B36" transform="translate(255.4375,157.6875)"/>
<path d="M0 0 C3.1170837341147717 3.0117877131841624 5.202792236395055 5.789070301528113 7.25 9.625 C8.031171874999984 11.067460937500016 8.031171874999984 11.067460937500016 8.828125 12.5390625 C10 15 10 15 10 17 C10.804374999999993 17.144375000000025 11.608749999999986 17.288749999999993 12.4375 17.4375 C15 18 15 18 16 19 C16.1875 21.937499999999943 16.1875 21.937499999999943 16 25 C14 27 14 27 11.8359375 27.1953125 C11.023828125000023 27.17210937499999 10.211718749999989 27.148906249999982 9.375 27.125 C8.557734374999995 27.106953125000018 7.740468749999991 27.08890624999998 6.8984375 27.0703125 C6.271953124999982 27.04710937499999 5.6454687500000205 27.023906249999982 5 27 C5.329999999999984 25.019999999999982 5.659999999999968 23.04000000000002 6 21 C4.7470312500000205 20.72285156250001 3.494062499999984 20.445703125000023 2.203125 20.16015625 C0.5520770825153818 19.794299041011925 -1.0989642394133625 19.428412066571752 -2.75 19.0625 C-3.5749999999999886 18.880097656249973 -4.399999999999977 18.697695312500002 -5.25 18.509765625 C-6.049218750000023 18.33251953125 -6.848437499999989 18.1552734375 -7.671875 17.97265625 C-8.405029296875 17.81031494140626 -9.13818359375 17.647973632812523 -9.8935546875 17.480712890625 C-11.285724512560762 17.16300515006583 -12.67348269483739 16.825230440829046 -14.0556640625 16.466552734375 C-17.248611041773074 15.700389791458008 -19.727911689935922 15.598164593500883 -23 16 C-27.518137881837845 20.195413747420844 -30.16558562332318 25.57239800210823 -33 31 C-33.495000000000005 30.00999999999999 -33.495000000000005 30.00999999999999 -34 29 C-35.10836422741352 30.883161588855558 -35.10836422741352 30.883161588855558 -36 33 C-35.670000000000016 33.65999999999997 -35.34000000000003 34.31999999999999 -35 35 C-35.30695068691546 37.37886782359493 -35.61696878573605 38.637585196702105 -37.37890625 40.3046875 C-39.38821962486952 42.405993535405685 -40.4305733536317 44.57173373593628 -41.6875 47.1875 C-42.450625 48.77562499999999 -43.213750000000005 50.36374999999998 -44 52 C-40.370000000000005 51.34000000000003 -36.74000000000001 50.68000000000001 -33 50 C-34.289651760438346 51.37562854446753 -35.62689292561845 52.70766392999383 -37 54 C-37.65999999999997 54 -38.31999999999999 54 -39 54 C-39 54.65999999999997 -39 55.31999999999999 -39 56 C-40.31999999999999 56 -41.639999999999986 56 -43 56 C-42.91750000000002 56.763125 -42.83499999999998 57.526250000000005 -42.75 58.3125 C-43 61 -43 61 -44.6875 62.875 C-47.572708376065975 64.27861488565372 -48.98731243141356 63.92054342373473 -52 63 C-52.495000000000005 59.53499999999997 -52.495000000000005 59.53499999999997 -53 56 C-53.68062499999999 55.95875000000001 -54.361249999999984 55.91750000000002 -55.0625 55.875 C-59.18503653373733 54.64701039420589 -62.0999617050625 52.15076206683415 -65 49 C-65 48.34000000000003 -65 47.68000000000001 -65 47 C-66.10927856445312 46.82670166015623 -66.10927856445312 46.82670166015623 -67.240966796875 46.64990234375 C-70.02449989566853 45.994228942370626 -71.7578421019648 45.14042740587348 -74.14453125 43.6015625 C-75.28438476562499 42.882265625 -75.28438476562499 42.882265625 -76.447265625 42.1484375 C-77.22779296875001 41.64570312500001 -78.00832031249999 41.14296875000002 -78.8125 40.625 C-84.43930215304871 37.002716635757395 -89.6921070819053 34.239165451444876 -96 32 C-96.96937500000001 31.298749999999984 -97.93875 30.597500000000025 -98.9375 29.875 C-102.48214818984732 27.70480723070574 -104.96936233579225 27.45373567902959 -109.046875 27.2734375 C-111 27 -111 27 -113 25 C-113.375 22.5625 -113.375 22.5625 -113 20 C-111.23046875 18.30078125 -111.23046875 18.30078125 -109 17 C-107.08984375 17.1015625 -107.08984375 17.1015625 -104.9375 17.625 C-96.4990052403663 18.859591239343104 -88.0096613953366 15.376583309293892 -80 13 C-80 12.339999999999975 -80 11.680000000000007 -80 11 C-74.66585071591112 12.11128110085184 -71.42876303926431 13.971843943507622 -67.18359375 17.33984375 C-62.923194999070745 20.578966235053542 -58.01954966534035 24.266228315590354 -52.765625 25.54296875 C-52.182968749999986 25.693789062500002 -51.6003125 25.844609375000005 -51 26 C-50.504999999999995 26.99000000000001 -50.504999999999995 26.99000000000001 -50 28 C-46.306264726952804 27.417123334572352 -43.50118254704512 26.400836440191597 -40.25 24.5625 C-39.47140624999997 24.13066406249999 -38.6928125 23.698828124999977 -37.890625 23.25390625 C-35.85851514731479 22.13220586713709 -35.85851514731479 22.13220586713709 -35 20 C-33.07847241122073 19.295439884114273 -31.154187424182 18.594647161095793 -29.203125 17.9765625 C-26.8613640556257 17.051973209943412 -26.8613640556257 17.051973209943412 -24.693603515625 15.14111328125 C-22.11463854824774 13.091124813571298 -19.53996170408766 11.426878189524984 -16.69921875 9.765625 C-15.722753906249977 9.191992187499977 -14.746289062500011 8.618359375000011 -13.740234375 8.02734375 C-12.229130859375005 7.147558593749977 -12.229130859375005 7.147558593749977 -10.6875 6.25 C-9.660761718749995 5.648007812499998 -8.634023437499991 5.0460156249999955 -7.576171875 4.42578125 C-5.052823488509489 2.946981730475329 -2.52740377456405 1.4718541171111497 0 0 Z " fill="#0A1631" transform="translate(304,291)"/>
<path d="M0 0 C2.3100000000000023 0 4.6200000000000045 0 7 0 C9.369310690844486 6.090480334423063 11.342750315365777 12.232406009736621 13.1875 18.5 C13.460136718749993 19.417812500000025 13.732773437499986 20.335624999999993 14.013671875 21.28125 C14.678328275393483 23.520092611851737 15.340382455552174 25.759668699109852 16 28 C16.355660400390605 26.78098999023439 16.355660400390605 26.78098999023439 16.718505859375 25.537353515625 C17.597432556166098 22.530567038315496 18.47924210200614 19.524645894639093 19.363037109375 16.519287109375 C19.745386561807095 15.216894053173064 20.12657558130286 13.914159750599026 20.506591796875 12.611083984375 C21.052141254583432 10.74113675580196 21.602174400282365 8.872499446788765 22.15234375 7.00390625 C22.482263183593773 5.87799072265625 22.81218261718749 4.7520751953125 23.152099609375 3.592041015625 C24 1 24 1 25 0 C27.67058851002855 -0.141151612580785 30.324322376810642 -0.0424710733839504 33 0 C33.314531250000016 1.0157812500000034 33.62906250000003 2.031562500000007 33.953125 3.078125 C36.54297692937263 11.41767173844272 39.19610489527673 19.729292651989454 42 28 C42.13575439453126 27.43603515625 42.27150878906252 26.8720703125 42.411376953125 26.291015625 C43.03993348934466 23.69273367587016 43.676166209789415 21.096387728538218 44.3125 18.5 C44.52583984375002 17.613125000000025 44.739179687499984 16.726249999999993 44.958984375 15.8125 C46.30055109885427 10.366139568830533 47.92382345167459 5.2117511007815835 50 0 C52.31 0 54.620000000000005 0 57 0 C56.266514975233804 6.82934029816073 54.42673396853843 13.32245607005612 52.625 19.9375 C52.32078124999998 21.078964843749986 52.01656250000002 22.220429687499973 51.703125 23.396484375 C50.079496533248005 29.401828127025 48.310759549131205 35.22310112717196 46 41 C43.02999999999997 41 40.06 41 37 41 C34.333333333333314 31.666666666666686 31.666666666666686 22.333333333333314 29 13 C27.305528007992166 16.129254789838228 26.254867607957294 19.223794253778237 25.2734375 22.640625 C24.96406250000001 23.710546874999977 24.654687500000023 24.78046875000001 24.3359375 25.8828125 C24.018828125000027 26.993984375000025 23.701718749999998 28.105156249999993 23.375 29.25 C23.050156249999986 30.376640624999993 22.725312499999973 31.503281249999986 22.390625 32.6640625 C21.590279897448795 35.44173079708946 20.793542233355254 38.22038204111698 20 41 C17.029999999999973 41 14.060000000000002 41 11 41 C8.955574559096931 34.971394696596235 7.22082051544777 28.87727304872817 5.5 22.75 C5.037871093750027 21.127714843750027 5.037871093750027 21.127714843750027 4.56640625 19.47265625 C2.753744930679659 13.023316191130647 1.1920254594059543 6.593159450937804 0 0 Z " fill="#F2F1F3" transform="translate(265,241)"/>
<path d="M0 0 C4.592479600677962 2.301199281549202 7.185162142086142 5.6151607565018935 8.87109375 10.34375 C9.71761537259465 16.163586155338294 8.288060866109333 20.655589760338046 4.87109375 25.34375 C-0.016895298033432482 29.333945141251775 -4.202364929915518 30.042746838300047 -10.47265625 29.79296875 C-14.63832549206279 29.088480569357046 -17.280296468045947 27.419599308719626 -20.12890625 24.34375 C-22.757715162468003 20.527737062546464 -23.735336001881024 17.109221463334222 -23.546875 12.43359375 C-22.558412983080473 7.491283665402477 -19.606238364542378 3.7341802254516665 -16.00390625 0.34375 C-10.82354511216738 -1.4581147435939386 -5.2691684524208995 -1.624257431204967 0 0 Z " fill="#F2F1F4" transform="translate(347.12890625,252.65625)"/>
<path d="M0 0 C2.6714451789270015 2.3534159909594905 5.249596613146565 4.657637391163803 7.625 7.3125 C7.625 7.972499999999997 7.625 8.632499999999993 7.625 9.3125 C5.64500000000001 10.302500000000009 3.664999999999992 11.29249999999999 1.625 12.3125 C0.8618749999999977 11.508125000000007 0.09874999999999545 10.703750000000014 -0.6875 9.875 C-4.584962090250826 6.1588152162724725 -7.917683581703841 5.919426157139981 -13.08203125 5.953125 C-16.972556358658295 6.562883620096358 -18.697236346670735 8.500848164004282 -21.375 11.3125 C-22.713279005272682 13.989058010545364 -22.580785556446983 16.13684052320906 -22.625 19.125 C-22.650781249999994 20.162695312499977 -22.676562500000003 21.20039062500001 -22.703125 22.26953125 C-22.326518523861395 25.7621079751425 -21.518124766306627 27.54671060564482 -19.375 30.3125 C-15.146795657136963 33.207328699470565 -10.301257406060657 32.96416239702222 -5.375 32.3125 C-2.2643149064156205 30.990926373066372 0.07644507832355885 29.409609843352882 1.625 26.3125 C4.062499999999972 27.125 4.062499999999972 27.125 6.625 28.3125 C7.1200000000000045 29.797500000000014 7.1200000000000045 29.797500000000014 7.625 31.3125 C4.734105972201974 35.788723010784 2.029479425088539 38.23292818115135 -3.0703125 39.83984375 C-9.869949180854718 41.23434550997189 -16.464579882393863 41.24545809244796 -22.5859375 37.71875 C-26.93985823578241 34.296454225149205 -30.41060741929485 29.82924035414129 -31.375 24.3125 C-32.100098842412066 17.64159064980896 -31.882282988444828 12.55596224890445 -27.86328125 7.03125 C-20.831971327156978 -1.0888979423909007 -10.115733588390498 -5.057866794195263 0 0 Z " fill="#2BEAF4" transform="translate(134.375,241.6875)"/>
<path d="M0 0 C4.313102200949373 1.7072696212091216 6.103020694425737 3.810614716703583 8 8 C8.364728872385854 11.612004362477137 8.28246114736524 15.186932091619383 8.1875 18.8125 C8.167197265624992 20.281064453124998 8.167197265624992 20.281064453124998 8.146484375 21.779296875 C8.111253115826372 24.186766251864128 8.06199264954509 26.593095642534365 8 29 C6.02000000000001 29 4.039999999999992 29 2 29 C2 28.339999999999975 2 27.680000000000007 2 27 C1.3812499999999943 27.495000000000005 0.7624999999999886 27.99000000000001 0.125 28.5 C-4.2675437533655725 30.608421001615454 -8.205360861024758 30.732186272454328 -13 30 C-15.93423195200279 28.203531457957467 -17.472053551776867 27.055892896446267 -19 24 C-19.501926956018337 19.56631188850463 -19.54663334041456 17.69847593497417 -16.75 14.125 C-12.184739676072866 10.597298840601752 -8.720195580842073 10.795707300684228 -3 11 C-0.5625 11.5 -0.5625 11.5 1 12 C0.008643586712366869 9.372697403086931 0.008643586712366869 9.372697403086931 -2 7 C-6.7540688728251155 6.451453591597101 -11.294167948310985 7.231700889520141 -16 8 C-16 4 -16 4 -14.1875 1.75 C-9.499221399999755 -0.8239568784315168 -5.237416584066949 -0.6467893974299557 0 0 Z " fill="#2AEEFC" transform="translate(203,252)"/>
<path d="M0 0 C2.6399999999999864 0 5.279999999999973 0 8 0 C8.329999999999984 6.930000000000007 8.660000000000025 13.860000000000014 9 21 C12.979166666666686 19.510416666666686 12.979166666666686 19.510416666666686 13.9375 17.125 C15.466049250695391 14.067901498609274 17.08169004723709 12.776362579942656 20 11 C22.761467713535467 10.672107729747182 25.203336755073792 10.81039571220839 28 11 C28 11.659999999999997 28 12.319999999999993 28 13 C26.35546875 14.585937499999972 26.35546875 14.585937499999972 24.1875 16.375 C21.35520186949833 18.71719189662616 19.107375609443295 20.981865846412404 17 24 C18.61402086828673 27.721949761841586 20.96407426326357 30.530245751752147 23.5625 33.625 C27.90277777777777 38.80555555555554 27.90277777777777 38.80555555555554 29 41 C25.449825670018697 41.56351973491769 23.41835557379551 41.87134553841844 20 41 C17.298835617005295 38.62855521305164 15.162594821978303 36.11040307961747 12.9453125 33.28515625 C11.13286517573323 30.756844886477552 11.13286517573323 30.756844886477552 8 30 C7.670000000000016 33.629999999999995 7.339999999999975 37.25999999999999 7 41 C4.689999999999998 41 2.3799999999999955 41 0 41 C0 27.470000000000027 0 13.939999999999998 0 0 Z " fill="#EBEBEE" transform="translate(383,241)"/>
<path d="M0 0 C2.3100000000000023 0 4.6200000000000045 0 7 0 C7 4.6200000000000045 7 9.240000000000009 7 14 C8.319999999999993 13.009999999999991 9.639999999999986 12.02000000000001 11 11 C15.619750669188278 10.067650319491094 19.22893405668779 10.621476718737654 23.4375 12.6875 C26.69289347015433 15.625294107212426 27.82964414099044 18.127734155982125 28.22705078125 22.495361328125 C28.216577148437494 23.348962402343773 28.20610351562499 24.20256347656249 28.1953125 25.08203125 C28.188867187499994 26.01337890625001 28.18242187499999 26.944726562500023 28.17578125 27.904296875 C28.159023437499997 28.86400390624999 28.142265624999993 29.823710937499982 28.125 30.8125 C28.11597656250001 31.79154296874998 28.10695312499999 32.770585937500016 28.09765625 33.779296875 C28.07417182327606 36.18645061420324 28.041328402285302 38.59309743306159 28 41 C25.689999999999998 41 23.379999999999995 41 21 41 C20.985417480468755 40.40985107421875 20.97083496093751 39.8197021484375 20.955810546875 39.211669921875 C20.88131156356991 36.53628770516275 20.784660046096064 33.86215108026721 20.6875 31.1875 C20.664941406249994 30.258730468750002 20.64238281249999 29.329960937500005 20.619140625 28.373046875 C20.56596679687499 27.034033203124977 20.56596679687499 27.034033203124977 20.51171875 25.66796875 C20.48553466796875 24.845788574218773 20.4593505859375 24.02360839843749 20.432373046875 23.176513671875 C19.904542138867953 20.519476661777446 19.15661110845275 19.60449831029996 17 18 C12.901508450300156 17.46297245777447 12.901508450300156 17.46297245777447 9.344482421875 19.245361328125 C7.665932922400572 21.43597967799292 7.580211372691764 22.70970109378544 7.48828125 25.44921875 C7.452832031250011 26.296777343750023 7.417382812499994 27.14433593749999 7.380859375 28.017578125 C7.358300781249994 28.898652343749973 7.335742187499989 29.779726562500002 7.3125 30.6875 C7.27833984374999 31.580175781249977 7.244179687500008 32.47285156250001 7.208984375 33.392578125 C7.126543518866896 35.5949267102701 7.057384491700901 37.796879376632546 7 40 C4.689999999999998 40 2.3799999999999955 40 0 40 C0 26.80000000000001 0 13.599999999999994 0 0 Z " fill="#2DECF6" transform="translate(150,241)"/>
<path d="M0 0 C3.1170837341148285 3.0117877131841624 5.202792236395055 5.789070301528113 7.25 9.625 C8.031171874999984 11.067460937500016 8.031171874999984 11.067460937500016 8.828125 12.5390625 C10 15 10 15 10 17 C10.804374999999993 17.144375000000025 11.608749999999986 17.288749999999993 12.4375 17.4375 C15 18 15 18 16 19 C16.1875 21.9375 16.1875 21.9375 16 25 C14 27 14 27 11.8359375 27.1953125 C11.023828125000023 27.17210937499999 10.211718749999989 27.148906249999982 9.375 27.125 C8.557734374999995 27.106953125000018 7.740468749999991 27.08890624999998 6.8984375 27.0703125 C6.271953124999982 27.04710937499999 5.6454687500000205 27.023906249999982 5 27 C5.329999999999984 25.019999999999982 5.659999999999968 23.04000000000002 6 21 C4.7470312500000205 20.72285156250001 3.494062499999984 20.445703125000023 2.203125 20.16015625 C0.5520770825153818 19.794299041011925 -1.0989642394133625 19.428412066571752 -2.75 19.0625 C-3.5749999999999886 18.880097656249973 -4.399999999999977 18.697695312500002 -5.25 18.509765625 C-6.049218750000023 18.33251953125 -6.848437499999989 18.1552734375 -7.671875 17.97265625 C-8.405029296875 17.81031494140626 -9.13818359375 17.647973632812523 -9.8935546875 17.480712890625 C-11.285724512560762 17.16300515006583 -12.67348269483739 16.825230440829046 -14.0556640625 16.466552734375 C-17.248611041773074 15.700389791458008 -19.727911689935922 15.598164593500883 -23 16 C-27.518137881837845 20.195413747420844 -30.16558562332318 25.57239800210823 -33 31 C-33.329999999999984 30.339999999999975 -33.660000000000025 29.680000000000007 -34 29 C-33.0625 26.375 -33.0625 26.375 -32 24 C-33.31999999999999 23.339999999999975 -34.639999999999986 22.680000000000007 -36 22 C-35 20 -35 20 -31.25 18.625 C-30.574531250000007 18.411015625000005 -29.899062500000014 18.19703125000001 -29.203125 17.9765625 C-26.8613640556257 17.05197320994347 -26.8613640556257 17.05197320994347 -24.693603515625 15.14111328125 C-22.11463854824774 13.091124813571355 -19.53996170408766 11.426878189524928 -16.69921875 9.765625 C-15.722753906249977 9.191992187499977 -14.746289062500011 8.618359375000011 -13.740234375 8.02734375 C-12.732832031249984 7.440820312500023 -11.725429687500025 6.854296874999989 -10.6875 6.25 C-9.147392578124993 5.347011718750025 -9.147392578124993 5.347011718750025 -7.576171875 4.42578125 C-5.052823488509489 2.946981730475329 -2.52740377456405 1.4718541171111497 0 0 Z " fill="#0F1E3B" transform="translate(304,291)"/>
<path d="M0 0 C0.6599999999999966 0.3300000000000125 1.3199999999999932 0.6599999999999966 2 1 C1.3606249999999989 1.4331249999999898 0.7212499999999977 1.866250000000008 0.0625 2.3125 C-2.2674600312767836 3.91239177485042 -2.2674600312767836 3.91239177485042 -3 7 C-1.259765625 7.380917968749998 -1.259765625 7.380917968749998 0.515625 7.76953125 C9.378192589885373 9.718726179736848 18.213750816086417 11.725911975928256 27 14 C27 14.659999999999997 27 15.319999999999993 27 16 C25.948125000000005 16.43312499999999 24.89625000000001 16.866250000000008 23.8125 17.3125 C21.452703585156826 18.31565232209931 19.400941754358 19.35943494738521 17.1875 20.6875 C15 22 15 22 13 22 C12.765390625000009 22.623906250000005 12.53078124999999 23.24781250000001 12.2890625 23.890625 C10.631769247365924 26.602559413401224 9.385840096619376 26.889759972394472 6.375 27.75 C5.149101562499993 28.11351562499999 5.149101562499993 28.11351562499999 3.8984375 28.484375 C3.2719531250000102 28.65453124999999 2.645468749999992 28.82468750000001 2 29 C1.5770263671875 28.235384521484377 1.5770263671875 28.235384521484377 1.1455078125 27.455322265625 C-0.13965412053266846 25.149977528667762 -1.444460960109467 22.85636143104361 -2.75 20.5625 C-3.4151562499999955 19.35883789062501 -3.4151562499999955 19.35883789062501 -4.09375 18.130859375 C-4.532031249999989 17.367089843749994 -4.970312500000006 16.60332031249999 -5.421875 15.81640625 C-5.819873046874989 15.10943603515625 -6.217871093750006 14.4024658203125 -6.6279296875 13.674072265625 C-8.296461340825687 11.638285513515712 -9.438934329148907 11.36416640115263 -12 11 C-12.625 7.625 -12.625 7.625 -13 4 C-12.340000000000003 3.3400000000000034 -11.680000000000007 2.680000000000007 -11 2 C-8.990453404353673 2 -6.97861778023929 2.0050172542660505 -4.97265625 2.125 C-2.6743844718002663 2.1447356960205184 -2.6743844718002663 2.1447356960205184 0 0 Z " fill="#0C1934" transform="translate(204,193)"/>
<path d="M0 0 C3.1200150414103973 1.6881844913442876 5.390474705785664 3.780949411571328 7 7 C7.084260940906688 8.667460598330365 7.10725142601467 10.33825187344462 7.09765625 12.0078125 C7.094433593750011 12.993945312499989 7.091210937500023 13.980078124999977 7.087890625 14.99609375 C7.079511718749984 16.028632812500007 7.071132812500025 17.061171875000014 7.0625 18.125 C7.0579882812500045 19.16527343749999 7.053476562500009 20.205546874999982 7.048828125 21.27734375 C7.037019520099989 23.8516196182066 7.020550749810695 26.425781462176417 7 29 C5.019999999999982 29 3.0400000000000205 29 1 29 C0.9742187500000057 27.74703125000002 0.9484375000000114 26.494062499999984 0.921875 25.203125 C0.8655883102229893 23.552048766541077 0.8082410955535693 21.901008447866843 0.75 20.25 C0.7358203125000102 19.42500000000001 0.721640624999992 18.600000000000023 0.70703125 17.75 C0.5508688139558444 13.877171586105248 0.45387003489005906 11.64379419112089 -1.8203125 8.41796875 C-4.073187951164044 6.663024778386159 -4.073187951164044 6.663024778386159 -7.625 7.0625 C-11.255169240838569 7.6750844999988885 -11.255169240838569 7.6750844999988885 -13 11 C-13.36351503686737 13.025421477613804 -13.36351503686737 13.025421477613804 -13.4140625 15.23046875 C-13.452734375000006 16.03291015625001 -13.491406250000011 16.835351562500023 -13.53125 17.662109375 C-13.562187499999993 18.495488281250005 -13.593124999999986 19.32886718750001 -13.625 20.1875 C-13.663671875000006 21.03248046875001 -13.702343750000011 21.877460937500018 -13.7421875 22.748046875 C-13.836362793115171 24.831675235172952 -13.919266754287463 26.915807525158243 -14 29 C-15.97999999999999 29 -17.960000000000008 29 -20 29 C-20 19.75999999999999 -20 10.519999999999982 -20 1 C-18.02000000000001 1 -16.039999999999992 1 -14 1 C-14 1.6599999999999966 -14 2.319999999999993 -14 3 C-13.440546874999995 2.515312499999993 -12.881093749999991 2.0306249999999864 -12.3046875 1.53125 C-8.436040835925013 -1.039105071724407 -4.478704923894043 -0.7758386482336164 0 0 Z " fill="#32F3FE" transform="translate(254,252)"/>
<path d="M0 0 C0.3299999999999841 0.9900000000000091 0.6599999999999966 1.9800000000000182 1 3 C-3.454999999999984 3.4950000000000045 -3.454999999999984 3.4950000000000045 -8 4 C-8 4.660000000000025 -8 5.319999999999993 -8 6 C-5.360000000000014 6.329999999999984 -2.719999999999999 6.660000000000025 0 7 C-0.3125 9.875 -0.3125 9.875 -1 13 C-4.313710004098539 15.209140002732397 -5.344602096017297 15.224815529973569 -9.1875 15.125 C-10.088554687499993 15.106953125000018 -10.989609374999986 15.08890624999998 -11.91796875 15.0703125 C-12.605039062499998 15.047109374999991 -13.292109374999995 15.023906249999982 -14 15 C-14 15.990000000000009 -14 16.980000000000018 -14 18 C-10.699999999999989 18.329999999999984 -7.400000000000006 18.660000000000025 -4 19 C-4 19.329999999999984 -4 19.660000000000025 -4 20 C-12.975252701289662 20.627396305332866 -12.975252701289662 20.627396305332866 -17.0625 18.125 C-19.55617860345052 15.389997660731694 -19.952624701224607 14.418481805849183 -20.375 10.6875 C-20 7 -20 7 -17.75 4.125 C-13.184739676072866 0.5972988406017521 -9.720195580842073 0.7957073006842279 -4 1 C-1.5625 1.5 -1.5625 1.5 0 2 C0 1.339999999999975 0 0.6800000000000068 0 0 Z " fill="#34E5F1" transform="translate(204,262)"/>
<path d="M0 0 C0 2.3100000000000023 0 4.6200000000000045 0 7 C-2.0182291666666856 7.423177083333314 -4.036458333333314 7.846354166666686 -6.0546875 8.26953125 C-8.370465493301765 8.92308838492579 -8.370465493301765 8.92308838492579 -10 12 C-10.362611696573708 13.927443689611778 -10.362611696573708 13.927443689611778 -10.4140625 16.01171875 C-10.452734374999977 16.76904296875 -10.491406250000011 17.5263671875 -10.53125 18.306640625 C-10.562187499999993 19.09232421874998 -10.593124999999986 19.878007812500016 -10.625 20.6875 C-10.663671874999977 21.484785156249984 -10.702343750000011 22.282070312500025 -10.7421875 23.103515625 C-10.836324943069258 25.06863474907044 -10.919246319298395 27.034285403974366 -11 29 C-12.980000000000018 29 -14.95999999999998 29 -17 29 C-17 19.75999999999999 -17 10.519999999999982 -17 1 C-15.019999999999982 1 -13.04000000000002 1 -11 1 C-11 1.6599999999999966 -11 2.319999999999993 -11 3 C-10.298749999999984 2.5049999999999955 -9.597500000000025 2.009999999999991 -8.875 1.5 C-5.628802809830461 -0.19366809921888262 -3.606598440001335 -0.25162314697683996 0 0 Z " fill="#F8F7F9" transform="translate(379,252)"/>
<path d="M0 0 C4.14182880937517 0.8628810019531556 5.56226470572841 2.1834913492635906 8 5.625 C8.687780327949724 8.64525274447476 8.455369256663403 10.43741520335601 8 13.625 C6.12984905743474 16.056196225334872 4.718616549532896 17.265691725233523 2 18.625 C-1.4650093854621673 19.00163145494156 -3.3634800306998045 19.010262086681735 -6.375 17.1875 C-8.783990414803895 13.388707422809205 -8.894726167043473 9.997487877203753 -8 5.625 C-5.5688715723772475 2.1213149131318687 -4.178629617341471 0.8705478369461161 0 0 Z " fill="#0D1530" transform="translate(340,257.375)"/>
<path d="M0 0 C1.9799999999999898 0 3.960000000000008 0 6 0 C7 1 7 1 7.113525390625 3.683837890625 C7.108288574218761 4.851647949218773 7.103051757812494 6.019458007812489 7.09765625 7.22265625 C7.094433593750011 8.482714843749989 7.091210937499994 9.742773437499977 7.087890625 11.041015625 C7.079534034290333 12.38151108766101 7.0710690735043045 13.722005878788593 7.0625 15.0625 C7.057486601471993 16.40689941817044 7.0529234172151405 17.751300596616716 7.048828125 19.095703125 C7.036994876683224 22.397179405379063 7.0205097083011765 25.69856803145899 7 29 C4.689999999999998 29 2.3799999999999955 29 0 29 C0 19.430000000000007 0 9.860000000000014 0 0 Z " fill="#2FF3FE" transform="translate(219,252)"/>
<path d="M0 0 C0.660000000000025 0.3299999999999841 1.3199999999999932 0.660000000000025 2 1 C1.009999999999991 2.319999999999993 0.01999999999998181 3.6399999999999864 -1 5 C12.062470463719933 8.415394512358318 12.062470463719933 8.415394512358318 25.375 8.4375 C28 8 28 8 31 10 C31.3125 13 31.3125 13 31 16 C29 18 29 18 26.8359375 18.1953125 C26.023828125000023 18.17210937499999 25.21171874999999 18.148906249999982 24.375 18.125 C23.557734374999995 18.106953125000018 22.74046874999999 18.08890624999998 21.8984375 18.0703125 C21.271953124999982 18.04710937499999 20.64546875000002 18.023906249999982 20 18 C20.329999999999984 16.019999999999982 20.659999999999968 14.04000000000002 21 12 C19.74703125000002 11.722851562500011 18.494062499999984 11.445703125000023 17.203125 11.16015625 C15.552077082515382 10.794299041011925 13.901035760586637 10.428412066571752 12.25 10.0625 C11.425000000000011 9.880097656249973 10.600000000000023 9.697695312500002 9.75 9.509765625 C8.950781249999977 9.33251953125 8.151562500000011 9.1552734375 7.328125 8.97265625 C6.594970703125 8.810314941406261 5.86181640625 8.647973632812523 5.1064453125 8.480712890625 C3.714275487439238 8.163005150065828 2.3265173051626107 7.825230440829046 0.9443359375 7.466552734375 C-2.2486110417730742 6.700389791458008 -4.727911689935922 6.598164593500883 -8 7 C-12.518137881837845 11.195413747420844 -15.165585623323182 16.57239800210823 -18 22 C-18.329999999999984 21.339999999999975 -18.660000000000025 20.680000000000007 -19 20 C-18.0625 17.375 -18.0625 17.375 -17 15 C-18.319999999999993 14.339999999999975 -19.639999999999986 13.680000000000007 -21 13 C-19.500576772682052 10.001153545364105 -17.05031444653116 9.907882015736561 -14.05078125 8.84765625 C-11.271010539311362 7.698684356248691 -9.287230024448434 5.935348482225606 -7 4 C-4.710893885220969 2.4905894177658183 -2.45424196485385 1.2502742085104614 0 0 Z " fill="#634642" transform="translate(289,300)"/>
<path d="M0 0 C0.3299999999999841 0.660000000000025 0.660000000000025 1.3199999999999932 1 2 C-0.4440446465857235 5.454381311440272 -2.2561965331130978 8.682520233727416 -4 12 C1.4449999999999932 11.009999999999991 1.4449999999999932 11.009999999999991 7 10 C5.710348239561654 11.375628544467531 4.373107074381551 12.707663929993828 3 14 C2.339999999999975 14 1.6800000000000068 14 1 14 C1 14.660000000000025 1 15.319999999999993 1 16 C-0.3199999999999932 16 -1.6399999999999864 16 -3 16 C-2.8762500000000273 17.144687499999975 -2.8762500000000273 17.144687499999975 -2.75 18.3125 C-3 21 -3 21 -4.6875 22.875 C-7.572708376065975 24.278614885653724 -8.987312431413557 23.920543423734728 -12 23 C-12.330000000000013 20.689999999999998 -12.659999999999997 18.379999999999995 -13 16 C-13.763125000000002 15.896875000000023 -14.526250000000005 15.793749999999989 -15.3125 15.6875 C-18 15 -18 15 -21 12 C-16.544999999999987 12.990000000000009 -16.544999999999987 12.990000000000009 -12 14 C-11.669999999999987 13.009999999999991 -11.340000000000003 12.019999999999982 -11 11 C-8.525000000000006 11.990000000000009 -8.525000000000006 11.990000000000009 -6 13 C-5.752499999999998 12.154375000000016 -5.5049999999999955 11.308749999999975 -5.25 10.4375 C-3.860263730751626 6.615725259566943 -2.08879162332164 3.4813193722027336 0 0 Z " fill="#3AA0B5" transform="translate(264,331)"/>
<path d="M0 0 C1.3199999999999932 0 2.6399999999999864 0 4 0 C4.3300000000000125 0.6599999999999966 4.659999999999997 1.3199999999999932 5 2 C5.551718749999992 1.6725781250000011 6.1034375000000125 1.3451562500000023 6.671875 1.0078125 C9.387809230509049 -0.1678771501196934 11.305517590723724 -0.20248637919146972 14.25 -0.125 C15.142031250000002 -0.10695312499998977 16.034062500000005 -0.08890625000000796 16.953125 -0.0703125 C17.96632812499999 -0.03550781249998636 17.96632812499999 -0.03550781249998636 19 0 C18.00999999999999 1.4850000000000136 18.00999999999999 1.4850000000000136 17 3 C13.375 3.1875 13.375 3.1875 10 3 C10 3.660000000000025 10 4.319999999999993 10 5 C9.372226562500003 5.574921874999973 8.744453125000007 6.149843750000002 8.09765625 6.7421875 C5.536840930434835 9.498521307651174 5.152612203181974 11.463985324590453 4.4375 15.125 C3.80859375 18.3203125 3.80859375 18.3203125 3 21 C2.009999999999991 21.660000000000025 1.0200000000000102 22.319999999999993 0 23 C0 15.410000000000025 0 7.819999999999993 0 0 Z " fill="#29F5FD" transform="translate(235,254)"/>
<path d="M0 0 C1.457928841490343 -0.05399736449965076 2.9164271180754326 -0.09279176601427253 4.375 -0.125 C5.187109374999977 -0.1482031250000091 5.999218750000011 -0.17140624999998977 6.8359375 -0.1953125 C9 0 9 0 11 2 C11.125 5.625 11.125 5.625 11 9 C4.84765625 9.09765625 4.84765625 9.09765625 3 9 C2.5049999999999955 8.504999999999995 2.5049999999999955 8.504999999999995 2 8 C-4.337197717893105 8.41555394871429 -10.181042840446537 9.706977717193894 -16.30078125 11.37890625 C-19 12 -19 12 -23 12 C-22.339999999999975 13.319999999999993 -21.680000000000007 14.639999999999986 -21 16 C-21.948750000000018 15.669999999999987 -22.89749999999998 15.340000000000003 -23.875 15 C-26.770624517882823 13.898408090965404 -26.770624517882823 13.898408090965404 -29 14 C-30.38938077352725 12.038521260902712 -31.72604109725131 10.038334244397902 -33 8 C-32.422500000000014 8.309374999999989 -31.845000000000027 8.618750000000006 -31.25 8.9375 C-24.647471601826737 12.055360632470723 -19.233414366822444 9.96174874628187 -12.375 8.3125 C-11.217421875000014 8.055332031250003 -10.059843750000027 7.798164062500007 -8.8671875 7.533203125 C-7.763750000000016 7.2708789062500045 -6.660312499999975 7.008554687500009 -5.5234375 6.73828125 C-4.512006835937484 6.501496582031251 -3.500576171875025 6.264711914062502 -2.45849609375 6.020751953125 C0.14638532915279256 5.214182504491049 0.14638532915279256 5.214182504491049 1.34521484375 2.891357421875 C1.5612939453125136 2.2672094726562477 1.7773730468750273 1.6430615234374955 2 1 C1.3400000000000318 0.6699999999999875 0.6800000000000068 0.3400000000000034 0 0 Z " fill="#5FD5E9" transform="translate(309,195)"/>
<path d="M0 0 C2.5625 0.3125 2.5625 0.3125 4.25 1.4375 C5.979040618778015 3.907558026825768 6.7301402510158255 6.43125471505482 7.5625 9.3125 C6.242500000000007 9.3125 4.922500000000014 9.3125 3.5625 9.3125 C3.8628515624999977 9.93898437499999 4.1632031249999955 10.565468750000008 4.47265625 11.2109375 C4.852929687500023 12.028203125000005 5.233203124999989 12.845468750000009 5.625 13.6875 C6.0078515624999795 14.499609375000006 6.390703125000016 15.311718750000011 6.78515625 16.1484375 C7.041679687499993 16.862578125 7.298203124999986 17.576718749999998 7.5625 18.3125 C7.232500000000016 18.972499999999997 6.902499999999975 19.632499999999993 6.5625 20.3125 C6.294375000000002 19.68601562500001 6.0262500000000045 19.059531249999992 5.75 18.4140625 C3.535005241166573 13.497383144935725 3.535005241166573 13.497383144935725 -0.55078125 10.26953125 C-2.978313211874706 9.652085498281735 -2.978313211874706 9.652085498281735 -6.4375 9.3125 C-5.777500000000003 8.982499999999987 -5.117500000000007 8.652500000000003 -4.4375 8.3125 C-4.478749999999991 7.36375000000001 -4.52000000000001 6.414999999999992 -4.5625 5.4375 C-4.4094080246401575 1.6102006160042777 -3.8769232667785616 0.4970414444588016 0 0 Z " fill="#4889A1" transform="translate(255.4375,157.6875)"/>
<path d="M0 0 C0 0.3300000000000125 0 0.6599999999999966 0 1 C-1.216875000000016 1.1031250000000057 -2.4337500000000034 1.2062500000000114 -3.6875 1.3125 C-7.410694480062034 1.7621931165971887 -9.916629949571274 2.7838277762543555 -13 5 C-13.330000000000013 4.009999999999991 -13.659999999999997 3.0200000000000102 -14 2 C-15.319999999999993 2 -16.639999999999986 2 -18 2 C-17.669999999999987 9.259999999999991 -17.340000000000003 16.519999999999982 -17 24 C-15.426885401389995 20.06721350347499 -14.572673717121774 17.104161639372705 -14 13 C-13.669999999999987 13 -13.340000000000003 13 -13 13 C-13 18.279999999999973 -13 23.560000000000002 -13 29 C-14.97999999999999 29 -16.960000000000008 29 -19 29 C-19 19.75999999999999 -19 10.519999999999982 -19 1 C-17.02000000000001 1 -15.039999999999992 1 -13 1 C-13 1.6599999999999966 -13 2.319999999999993 -13 3 C-12.525624999999991 2.5049999999999955 -12.05125000000001 2.009999999999991 -11.5625 1.5 C-7.796416494819709 -0.7045366859591979 -4.265406205064295 -0.24608112721523412 0 0 Z " fill="#42EEFA" transform="translate(253,252)"/>
<path d="M0 0 C0.6599999999999966 0.3300000000000125 1.3199999999999932 0.6599999999999966 2 1 C1.3606249999999989 1.3918749999999989 0.7212499999999977 1.7837499999999977 0.0625 2.1875 C-2.4798045538654776 4.421646426124198 -2.509271000130582 5.728473334203898 -3 9 C-3.990000000000009 10.485000000000014 -3.990000000000009 10.485000000000014 -5 12 C-7.310000000000002 11.669999999999987 -9.620000000000005 11.340000000000003 -12 11 C-12.625 7.625 -12.625 7.625 -13 4 C-12.340000000000003 3.3400000000000034 -11.680000000000007 2.680000000000007 -11 2 C-8.990453404353673 2 -6.97861778023929 2.0050172542660505 -4.97265625 2.125 C-2.6743844718002663 2.1447356960205184 -2.6743844718002663 2.1447356960205184 0 0 Z " fill="#3EBED9" transform="translate(204,193)"/>
<path d="M0 0 C3.960000000000008 0 7.9199999999999875 0 12 0 C11.6875 2.875 11.6875 2.875 11 6 C7.326532291281609 8.448978472478927 5.336436005378005 8.315377164027495 1 8 C0.3400000000000034 7.339999999999975 -0.3199999999999932 6.680000000000007 -1 6 C-0.625 2.875 -0.625 2.875 0 0 Z " fill="#021E36" transform="translate(192,269)"/>
<path d="M0 0 C1.3199999999999932 0 2.6399999999999864 0 4 0 C4.1875 2.375 4.1875 2.375 4 5 C0.26321570469968947 7.491189530200245 -1.7445181944393369 7.206522601936911 -6.1875 7.125 C-7.459804687499997 7.106953125000018 -8.732109374999993 7.0889062499999795 -10.04296875 7.0703125 C-11.50669921875 7.035507812499986 -11.50669921875 7.035507812499986 -13 7 C-13 5.333333333333314 -13 3.6666666666666856 -13 2 C-12.145351562499997 1.9394140625000205 -11.290703124999993 1.878828124999984 -10.41015625 1.81640625 C-8.75306640625 1.6907226562499886 -8.75306640625 1.6907226562499886 -7.0625 1.5625 C-5.960351562499994 1.481289062500025 -4.858203125000003 1.4000781249999932 -3.72265625 1.31640625 C-1.0889009742212465 1.2958191628002282 -1.0889009742212465 1.2958191628002282 0 0 Z " fill="#27F4FC" transform="translate(132,274)"/>
<path d="M0 0 C1 1 1 1 1.1875 3.9375 C1 7 1 7 -1 9 C-3.1640625 9.1953125 -3.1640625 9.1953125 -5.625 9.125 C-6.4422656250000045 9.106953125000018 -7.259531250000009 9.08890624999998 -8.1015625 9.0703125 C-8.728046875000018 9.047109374999991 -9.35453124999998 9.023906249999982 -10 9 C-9.745503998967877 7.517935052812845 -9.470882377031785 6.039313851035388 -9.1875 4.5625 C-9.036679687499998 3.738789062500018 -8.885859374999995 2.9150781249999795 -8.73046875 2.06640625 C-8.489414062499975 1.3844921874999727 -8.248359375000007 0.7025781250000023 -8 0 C-4.696760135326997 -1.10107995489102 -3.294952312393036 -0.8670927137876561 0 0 Z " fill="#55D1DF" transform="translate(319,309)"/>
<path d="M0 0 C5.3607595148024245 1.116824898917173 8.667509114051484 3.00450334524254 12.93359375 6.40234375 C16.122472985166326 8.867847733332724 19.548735113686547 10.925569509822253 23 13 C21.680000000000007 13.329999999999984 20.360000000000014 13.660000000000025 19 14 C19 13.339999999999975 19 12.680000000000007 19 12 C17.349999999999994 12 15.699999999999989 12 14 12 C14.659999999999997 13.980000000000018 15.319999999999993 15.95999999999998 16 18 C15.009999999999991 17.670000000000016 14.02000000000001 17.339999999999975 13 17 C12.214719239562442 15.298558352385271 11.436908246020351 13.59194539982417 10.7421875 11.8515625 C9.725327329741134 9.31476396998579 8.664329923405376 7.176431438299346 7 5 C3.1668696767168 3.549626364163089 -0.0527988527339005 4.173841620339658 -4 5 C-4 5.660000000000025 -4 6.319999999999993 -4 7 C-6.969999999999999 6.5049999999999955 -6.969999999999999 6.5049999999999955 -10 6 C-6.774842368415818 4.263376659916219 -3.4867083398783905 3.109407199052214 0 2 C0 1.339999999999975 0 0.6800000000000068 0 0 Z " fill="#2C4866" transform="translate(224,302)"/>
<path d="M0 0 C2.157379688041317 0.9743005042766981 3.3929387604770795 2.09875457454865 4.9375 3.875 C3.0625 8.75 3.0625 8.75 1.9375 9.875 C-1 10.0625 -1 10.0625 -4.0625 9.875 C-6.0625 7.875 -6.0625 7.875 -6.4375 5.4375 C-6.0625 2.875 -6.0625 2.875 -4.3125 1 C-2.0625 -0.125 -2.0625 -0.125 0 0 Z " fill="#3492A1" transform="translate(197.0625,308.125)"/>
<path d="M0 0 C6.75 -0.125 6.75 -0.125 9 1 C9.25 7.625 9.25 7.625 7 11 C7.659999999999997 11.329999999999984 8.319999999999993 11.660000000000025 9 12 C5.853887467420748 14.097408355052835 5.088119218823493 14.253282185678415 1.5 14.1875 C0.7265625 14.181054687500023 -0.046875 14.174609374999989 -0.84375 14.16796875 C-3 14 -3 14 -6 13 C-6 12.009999999999991 -6 11.019999999999982 -6 10 C-5.312929687500002 9.962617187499973 -4.6258593750000045 9.925234375000002 -3.91796875 9.88671875 C-3.016914062500007 9.820976562499993 -2.1158593750000136 9.755234374999986 -1.1875 9.6875 C-0.2941796874999909 9.629492187499977 0.5991406249999898 9.571484375000011 1.51953125 9.51171875 C4.341310886448895 8.929587832874347 5.271226779067661 8.260703442757688 7 6 C7.714476428912775 3.896671089354413 7.714476428912775 3.896671089354413 8 2 C5.360000000000014 1.670000000000016 2.719999999999999 1.339999999999975 0 1 C0 0.6700000000000159 0 0.339999999999975 0 0 Z " fill="#3DECF8" transform="translate(196,267)"/>
<path d="M0 0 C2.4375 0.8125 2.4375 0.8125 5 2 C5.329999999999984 2.990000000000009 5.659999999999997 3.980000000000018 6 5 C4.595541650733537 7.263656398229443 2.8032086977907795 9.020868502424776 1 11 C0.3400000000000034 10.009999999999991 -0.3199999999999932 9.019999999999982 -1 8 C-0.6699999999999875 7.339999999999975 -0.3400000000000034 6.680000000000007 0 6 C-0.6393750000000011 6.329999999999984 -1.2787500000000023 6.660000000000025 -1.9375 7 C-6.012368414984422 8.330569278362248 -9.751904247117892 8.166591990309087 -14 8 C-14 7.670000000000016 -14 7.339999999999975 -14 7 C-13.408320312499995 6.913632812499998 -12.816640625000005 6.8272656249999955 -12.20703125 6.73828125 C-6.5023566577959855 5.723910074550986 -3.6756436041978304 4.505627643855405 0 0 Z " fill="#2DDFEC" transform="translate(136,268)"/>
<path d="M0 0 C1.9995474601141439 -0.042543562981165906 4.0004163630731 -0.040807829325046896 6 0 C7 1 7 1 7.113525390625 3.683837890625 C7.108288574218761 4.851647949218773 7.103051757812494 6.019458007812489 7.09765625 7.22265625 C7.094433593750011 8.482714843749989 7.091210937499994 9.742773437499977 7.087890625 11.041015625 C7.079534034290333 12.38151108766101 7.0710690735043045 13.722005878788593 7.0625 15.0625 C7.057486601471993 16.40689941817044 7.0529234172151405 17.751300596616716 7.048828125 19.095703125 C7.036994876683224 22.397179405379063 7.0205097083011765 25.69856803145899 7 29 C6.6699999999999875 29 6.340000000000003 29 6 29 C5.242580749152239 19.978595708652676 4.864657142353678 11.052933367009416 5 2 C3.680000000000007 2 2.3600000000000136 2 1 2 C1 4.310000000000002 1 6.6200000000000045 1 9 C0.6699999999999875 9 0.3400000000000034 9 0 9 C0 6.029999999999973 0 3.0600000000000023 0 0 Z " fill="#2CAFC8" transform="translate(219,252)"/>
<path d="M0 0 C0.49500000000000455 1.9799999999999898 0.49500000000000455 1.9799999999999898 1 4 C-2.4148849222182207 4.840752180954723 -5.8321721278102245 5.671299926140108 -9.25 6.5 C-10.702128906249982 6.857714843749989 -10.702128906249982 6.857714843749989 -12.18359375 7.22265625 C-13.1181640625 7.4482421875 -14.052734375 7.673828125 -15.015625 7.90625 C-16.30388183593749 8.220458984375 -16.30388183593749 8.220458984375 -17.6181640625 8.541015625 C-20 9 -20 9 -24 9 C-23.339999999999975 10.319999999999993 -22.680000000000007 11.639999999999986 -22 13 C-22.948750000000018 12.669999999999987 -23.89749999999998 12.340000000000003 -24.875 12 C-27.770624517882823 10.898408090965404 -27.770624517882823 10.898408090965404 -30 11 C-31.38938077352725 9.038521260902712 -32.72604109725131 7.038334244397902 -34 5 C-33.13375000000002 5.464062500000011 -33.13375000000002 5.464062500000011 -32.25 5.9375 C-27.75782598742444 8.058804394827348 -25.03536441849127 8.017301010565745 -20.17578125 6.85546875 C-19.065253906250007 6.590566406249991 -17.954726562500014 6.32566406250001 -16.810546875 6.052734375 C-15.079013671874975 5.624443359374993 -15.079013671874975 5.624443359374993 -13.3125 5.1875 C-12.146542968749998 4.91357421875 -10.980585937499995 4.6396484375 -9.779296875 4.357421875 C-5.3524062583204 3.3076758069837524 -5.3524062583204 3.3076758069837524 -1 2 C-0.6700000000000159 1.3400000000000034 -0.34000000000003183 0.6800000000000068 0 0 Z " fill="#6C6D73" transform="translate(310,198)"/>
<path d="M0 0 C0.3299999999999841 0.9900000000000091 0.6599999999999966 1.9800000000000182 1 3 C-3.4550000000000125 3.4950000000000045 -3.4550000000000125 3.4950000000000045 -8 4 C-8 4.660000000000025 -8 5.319999999999993 -8 6 C-6.349999999999994 6 -4.699999999999989 6 -3 6 C-3 6.329999999999984 -3 6.660000000000025 -3 7 C-5.969999999999999 7 -8.939999999999998 7 -12 7 C-12 6.339999999999975 -12 5.680000000000007 -12 5 C-14.38564076906141 5.575844323566571 -16.666827841052623 6.222275947017522 -19 7 C-18.375 5.125 -18.375 5.125 -17 3 C-11.540482328204632 0.46068945497887626 -5.746326220769987 0.16117560935362008 0 2 C0 1.339999999999975 0 0.6800000000000068 0 0 Z " fill="#2BC8D9" transform="translate(204,262)"/>
<path d="M0 0 C4.875 0.875 4.875 0.875 6 2 C6.374066633356449 3.7417477615660744 6.6995184512086325 5.494060949250496 7 7.25 C7.621710209094033 10.844262146325036 8.269565930441786 14.42609044537599 9 18 C6.6087793126442875 14.962503451196795 4.677455908039121 11.822049610885813 2.8125 8.4375 C2.282695312499982 7.487460937500003 1.7528906250000205 6.537421875000007 1.20703125 5.55859375 C0 3 0 3 0 0 Z " fill="#101120" transform="translate(259,167)"/>
<path d="M0 0 C0.3299999999999841 0.660000000000025 0.660000000000025 1.3199999999999932 1 2 C-0.44404464658566667 5.454381311440272 -2.2561965331130978 8.682520233727416 -4 12 C1.4449999999999932 11.009999999999991 1.4449999999999932 11.009999999999991 7 10 C5.710348239561654 11.375628544467531 4.373107074381551 12.707663929993828 3 14 C2.339999999999975 14 1.6800000000000068 14 1 14 C1 14.660000000000025 1 15.319999999999993 1 16 C-1.375 16.125 -1.375 16.125 -4 16 C-4.660000000000025 15.339999999999975 -5.319999999999993 14.680000000000007 -6 14 C-5.6508236751139975 10.222547030778742 -4.32850650701738 7.436152204363168 -2.4375 4.1875 C-1.9824609374999795 3.397304687500025 -1.527421875000016 2.607109374999993 -1.05859375 1.79296875 C-0.5345898437499841 0.9054492187499932 -0.5345898437499841 0.9054492187499932 0 0 Z " fill="#3D5060" transform="translate(264,331)"/>
<path d="M0 0 C4.705882352941188 0.7058823529411882 4.705882352941188 0.7058823529411882 6 2 C6.125 4.5 6.125 4.5 6 7 C5 8 5 8 2.5625 8.1875 C0 8 0 8 -2 6 C-1.444444444444457 1.444444444444457 -1.444444444444457 1.444444444444457 0 0 Z " fill="#31E9F1" transform="translate(220,239)"/>
<path d="M0 0 C9.569999999999993 2.3100000000000023 19.139999999999986 4.6200000000000045 29 7 C29 7.659999999999997 29 8.319999999999993 29 9 C27.02000000000001 9.330000000000013 25.039999999999992 9.659999999999997 23 10 C23 9.340000000000003 23 8.680000000000007 23 8 C19.773305842409968 7.156888809413573 16.543290818984303 6.3272613169717715 13.3125 5.5 C12.400488281250006 5.261523437499989 11.488476562500011 5.023046875000006 10.548828125 4.77734375 C9.66259765625 4.5517578125 8.7763671875 4.326171875 7.86328125 4.09375 C7.05157470703125 3.88427734375 6.2398681640625 3.6748046875 5.403564453125 3.458984375 C2.881006999728612 2.9772771111721568 0.5619181670913349 2.920251574565242 -2 3 C-1.3400000000000034 2.009999999999991 -0.6800000000000068 1.0200000000000102 0 0 Z " fill="#71534D" transform="translate(202,200)"/>
<path d="M0 0 C1.3199999999999932 0.660000000000025 2.6399999999999864 1.3199999999999932 4 2 C4 3.319999999999993 4 4.639999999999986 4 6 C2.3499999999999943 6.660000000000025 0.6999999999999886 7.319999999999993 -1 8 C-1 7.339999999999975 -1 6.680000000000007 -1 6 C-1.6264843749999898 5.951015625000025 -2.252968750000008 5.902031249999993 -2.8984375 5.8515625 C-3.7157031250000045 5.776796875000002 -4.532968750000009 5.7020312500000045 -5.375 5.625 C-6.593164062499994 5.520585937500016 -6.593164062499994 5.520585937500016 -7.8359375 5.4140625 C-10 5 -10 5 -12 3 C-8.039999999999992 3 -4.0800000000000125 3 0 3 C0 2.009999999999991 0 1.0199999999999818 0 0 Z " fill="#1BEDFF" transform="translate(206,262)"/>
<path d="M0 0 C1.9799999999999898 0 3.960000000000008 0 6 0 C6.3300000000000125 4.949999999999989 6.659999999999997 9.900000000000006 7 15 C6.009999999999991 15 5.02000000000001 15 4 15 C3.6699999999999875 11.370000000000005 3.3400000000000034 7.740000000000009 3 4 C2.009999999999991 4.659999999999997 1.0200000000000102 5.319999999999993 0 6 C0 4.02000000000001 0 2.039999999999992 0 0 Z " fill="#33E1F0" transform="translate(151,241)"/>
<path d="M0 0 C-0.9900000000000091 1.4850000000000136 -0.9900000000000091 1.4850000000000136 -2 3 C-1.6878236036383498 5.646322871190421 -1.6878236036383498 5.646322871190421 -1 8 C-1.990000000000009 8.495000000000005 -1.990000000000009 8.495000000000005 -3 9 C-3.556874999999991 8.360625000000027 -4.11375000000001 7.721249999999998 -4.6875 7.0625 C-7.220665612083337 4.803190129763493 -8.683414241693782 4.368509528700713 -12 4 C-12 3.670000000000016 -12 3.339999999999975 -12 3 C-10.865624999999994 2.855624999999975 -9.731249999999989 2.711250000000007 -8.5625 2.5625 C-5.192227989734931 2.388285222293291 -5.192227989734931 2.388285222293291 -4 1 C-6.639999999999986 0.6699999999999875 -9.280000000000001 0.3400000000000034 -12 0 C-12 -0.3300000000000125 -12 -0.6599999999999966 -12 -1 C-3.4285714285714164 -2.4285714285714164 -3.4285714285714164 -2.4285714285714164 0 0 Z " fill="#32E9F5" transform="translate(257,254)"/>
<path d="M0 0 C-2.9518310105950434 2.951831010595015 -5.955119469646121 3.0866398802426716 -10 4 C-9.340000000000003 4.660000000000025 -8.680000000000007 5.319999999999993 -8 6 C-10.310000000000002 6.660000000000025 -12.620000000000005 7.319999999999993 -15 8 C-15.330000000000013 6.019999999999982 -15.659999999999997 4.0400000000000205 -16 2 C-10.545388307221856 0.6147017923103135 -5.632815990966208 -0.23969429748791526 0 0 Z " fill="#02213E" transform="translate(201,258)"/>
<path d="M0 0 C3.299053857448513 1.346552594876954 4.498787043937995 2.164645073229991 6.3125 5.1875 C6.539375000000007 5.785624999999982 6.766250000000014 6.3837500000000205 7 7 C4.689999999999998 6.339999999999975 2.3799999999999955 5.680000000000007 0 5 C0.3300000000000125 4.339999999999975 0.6599999999999966 3.680000000000007 1 3 C-1.8821130208090722 2.0392956597303 -3.698500438918529 1.8941811657814185 -6.6875 1.9375 C-7.495742187500014 1.946523437499991 -8.303984374999999 1.9555468750000102 -9.13671875 1.96484375 C-9.751601562500014 1.9764453125000045 -10.366484374999999 1.988046875000009 -11 2 C-11 2.6599999999999966 -11 3.319999999999993 -11 4 C-12.319999999999993 3.6699999999999875 -13.639999999999986 3.3400000000000034 -15 3 C-10.409575454701525 -1.0827775955831385 -5.866403061242863 -0.6440857960415087 0 0 Z " fill="#3DE5F5" transform="translate(203,252)"/>
<path d="M0 0 C1.675429756312269 0.2860489827850188 3.343853426426733 0.6178123291754218 5 1 C5.625 2.875 5.625 2.875 6 5 C5.339999999999975 5.660000000000025 4.680000000000007 6.319999999999993 4 7 C1.375 6.625 1.375 6.625 -1 6 C-1.0427210013208992 4.333880948484193 -1.0406383207578642 2.666171151071751 -1 1 C-0.6700000000000159 0.6700000000000159 -0.339999999999975 0.339999999999975 0 0 Z " fill="#021C30" transform="translate(313,310)"/>
<path d="M0 0 C7.428571428571416 -0.2857142857142776 7.428571428571416 -0.2857142857142776 11 2 C8.4107366906876 4.5892633093124005 6.972947207910096 4.373980427355093 3.375 4.625 C2.372109375000008 4.699765624999998 1.3692187499999875 4.7745312499999955 0.3359375 4.8515625 C-0.820351562500008 4.925039062499991 -0.820351562500008 4.925039062499991 -2 5 C-2 4.339999999999975 -2 3.680000000000007 -2 3 C-1.3400000000000034 3 -0.6800000000000068 3 0 3 C0 2.009999999999991 0 1.0200000000000102 0 0 Z " fill="#1AFEFC" transform="translate(194,253)"/>
<path d="M0 0 C0.3300000000000125 0.9900000000000091 0.6599999999999966 1.9799999999999898 1 3 C3.6399999999999864 2.3400000000000034 6.280000000000001 1.6800000000000068 9 1 C9 1.6599999999999966 9 2.319999999999993 9 3 C7.969394531250003 3.4891992187500023 7.969394531250003 3.4891992187500023 6.91796875 3.98828125 C6.016914062500007 4.42527343750001 5.115859375000014 4.862265624999992 4.1875 5.3125 C3.294179687499991 5.741757812499998 2.4008593750000102 6.1710156249999955 1.48046875 6.61328125 C-0.7893193313585414 7.8822178939091145 -2.2924817061692124 9.065568976092038 -4 11 C-4.659999999999997 10.669999999999987 -5.319999999999993 10.340000000000003 -6 10 C-5.650664062499999 9.445703124999994 -5.301328124999998 8.891406249999989 -4.94140625 8.3203125 C-4.486367187500008 7.595859375000003 -4.0313281249999875 6.871406250000007 -3.5625 6.125 C-3.110039062499993 5.405703125000002 -2.6575781249999864 4.6864062500000045 -2.19140625 3.9453125 C-0.9753849880914629 2.022245297873951 -0.9753849880914629 2.022245297873951 0 0 Z " fill="#356A8F" transform="translate(237,196)"/>
<path d="M0 0 C2.969999999999999 0.49500000000000455 2.969999999999999 0.49500000000000455 6 1 C5.6699999999999875 2.6500000000000057 5.340000000000003 4.300000000000011 5 6 C3.125 6.625 3.125 6.625 1 7 C0.3400000000000034 6.340000000000003 -0.3199999999999932 5.680000000000007 -1 5 C-0.625 2.375 -0.625 2.375 0 0 Z " fill="#03212F" transform="translate(194,196)"/>
<path d="M0 0 C1.675429756312269 0.2860489827850188 3.343853426426733 0.6178123291753934 5 1 C5.625 2.875 5.625 2.875 6 5 C5.339999999999975 5.659999999999997 4.680000000000007 6.319999999999993 4 7 C1.875 6.625 1.875 6.625 0 6 C-0.38218767082457816 4.343853426426705 -0.7139510172149812 2.675429756312269 -1 1 C-0.6700000000000159 0.6699999999999875 -0.339999999999975 0.3400000000000034 0 0 Z " fill="#031C28" transform="translate(313,196)"/>
<path d="M0 0 C2.0625 0.4375 2.0625 0.4375 4 1 C4.329999999999984 2.6500000000000057 4.660000000000025 4.300000000000011 5 6 C2.625 6.625 2.625 6.625 0 7 C-0.6599999999999966 6.340000000000003 -1.3199999999999932 5.680000000000007 -2 5 C-1.4642857142857224 1.4642857142857224 -1.4642857142857224 1.4642857142857224 0 0 Z " fill="#012128" transform="translate(254,159)"/>
<path d="M0 0 C0.3299999999999841 0.660000000000025 0.660000000000025 1.3199999999999932 1 2 C0.22265625 3.9453125 0.22265625 3.9453125 -0.9375 6.125 C-1.3177734375000227 6.849453125000025 -1.6980468749999886 7.573906249999993 -2.08984375 8.3203125 C-2.3901953124999977 8.874609374999977 -2.6905468749999955 9.428906250000011 -3 10 C-5.25 10 -5.25 10 -8 9 C-9.671987682496933 6.473322128367215 -10.858055709586267 3.800634321182258 -12 1 C-11.340000000000003 1 -10.680000000000007 1 -10 1 C-9.669999999999987 2.319999999999993 -9.340000000000003 3.6399999999999864 -9 5 C-8.340000000000003 5 -7.680000000000007 5 -7 5 C-7 5.660000000000025 -7 6.319999999999993 -7 7 C-5.680000000000007 7 -4.360000000000014 7 -3 7 C-2.6906250000000114 6.030624999999986 -2.3812500000000227 5.061249999999973 -2.0625 4.0625 C-1 1 -1 1 0 0 Z " fill="#18111B" transform="translate(261,334)"/>
<path d="M0 0 C0.9900000000000091 0.3299999999999841 1.9799999999999898 0.660000000000025 3 1 C3 1.990000000000009 3 2.980000000000018 3 4 C2.3400000000000034 4 1.6800000000000068 4 1 4 C1 4.990000000000009 1 5.980000000000018 1 7 C-0.9799999999999898 7.990000000000009 -0.9799999999999898 7.990000000000009 -3 9 C-4 8 -4 8 -4.3125 5.625 C-4 3 -4 3 -2.1875 1.125 C-1.4656249999999886 0.753750000000025 -0.7437500000000057 0.3824999999999932 0 0 Z " fill="#1AF8FE" transform="translate(189,266)"/>
<path d="M0 0 C2.0625 0.4375 2.0625 0.4375 4 1 C4.329999999999984 2.6499999999999773 4.660000000000025 4.300000000000011 5 6 C3.343853426426733 6.382187670824578 1.675429756312269 6.713951017214981 0 7 C-1 6 -1 6 -1.125 3.5 C-1 1 -1 1 0 0 Z " fill="#021522" transform="translate(254,346)"/>
<path d="M0 0 C0.6599999999999966 0 1.3199999999999932 0 2 0 C2 0.6599999999999966 2 1.3199999999999932 2 2 C1.3400000000000034 2 0.6800000000000068 2 0 2 C0 1.3400000000000034 0 0.6800000000000068 0 0 Z M-5 2 C-3.333880948484193 1.9572789986790724 -1.666171151071751 1.9593616792421642 0 2 C0.3300000000000125 2.329999999999984 0.6599999999999966 2.660000000000025 1 3 C3.6705885100284945 3.1411516125808134 6.32432237681067 3.042471073383979 9 3 C9 3.329999999999984 9 3.660000000000025 9 4 C-0.4100227790432882 6.2961275626423685 -0.4100227790432882 6.2961275626423685 -5 6 C-5 4.680000000000007 -5 3.3600000000000136 -5 2 Z " fill="#28E3F3" transform="translate(192,254)"/>
<path d="M0 0 C0.7837499999999977 0.041249999999990905 1.5674999999999955 0.08250000000001023 2.375 0.125 C1.7356250000000273 0.3725000000000023 1.0962499999999977 0.6200000000000045 0.4375 0.875 C-1.8124154077228525 1.9406243276373232 -1.8124154077228525 1.9406243276373232 -2.375 4.25 C-2.4575000000000102 4.868750000000006 -2.539999999999992 5.487500000000011 -2.625 6.125 C-0.15000000000000568 7.115000000000009 -0.15000000000000568 7.115000000000009 2.375 8.125 C2.045000000000016 9.115000000000009 1.714999999999975 10.10499999999999 1.375 11.125 C-1.2649999999999864 10.465000000000003 -3.905000000000001 9.805000000000007 -6.625 9.125 C-5.965000000000003 8.794999999999987 -5.305000000000007 8.465000000000003 -4.625 8.125 C-4.666249999999991 7.17625000000001 -4.70750000000001 6.227499999999992 -4.75 5.25 C-4.592288840059865 1.307221001496515 -4.032873878915495 0.19204161328170244 0 0 Z " fill="#57D9F1" transform="translate(255.625,157.875)"/>
<path d="M0 0 C3.6299999999999955 0.3299999999999841 7.259999999999991 0.660000000000025 11 1 C11 1.660000000000025 11 2.319999999999993 11 3 C9.741874999999993 3.185625000000016 8.483749999999986 3.371249999999975 7.1875 3.5625 C6.12595703125001 3.7191210937500045 6.12595703125001 3.7191210937500045 5.04296875 3.87890625 C3 4 3 4 0 3 C0 2.009999999999991 0 1.0199999999999818 0 0 Z " fill="#1EF6F8" transform="translate(190,277)"/>
<path d="M0 0 C2.3100000000000023 0.660000000000025 4.6200000000000045 1.3199999999999932 7 2 C4.602368148253078 4.397631851746951 3.667265017368152 4.342805855654149 0.375 4.625 C-0.44226562500000455 4.699765624999998 -1.259531250000009 4.7745312499999955 -2.1015625 4.8515625 C-2.7280468749999898 4.900546874999975 -3.354531250000008 4.949531250000007 -4 5 C-4 5.660000000000025 -4 6.319999999999993 -4 7 C-6.969999999999999 6.5049999999999955 -6.969999999999999 6.5049999999999955 -10 6 C-6.774842368415818 4.263376659916219 -3.4867083398783905 3.109407199052214 0 2 C0 1.339999999999975 0 0.6800000000000068 0 0 Z " fill="#705757" transform="translate(224,302)"/>
<path d="M0 0 C1.6500000000000057 0 3.3000000000000114 0 5 0 C6.044499108152706 3.1334973244581192 5.934236445699298 3.989682563857855 5 7 C4.009999999999991 6.670000000000016 3.0200000000000102 6.339999999999975 2 6 C0.8125 2.9375 0.8125 2.9375 0 0 Z " fill="#0F0A23" transform="translate(238,314)"/>
<path d="M0 0 C0.9900000000000091 0.3299999999999841 1.9800000000000182 0.660000000000025 3 1 C3.990000000000009 0.6700000000000159 4.980000000000018 0.339999999999975 6 0 C5.489641685706033 4.38908150292832 4.477857229256188 7.337080617621268 2 11 C1.670000000000016 10.339999999999975 1.339999999999975 9.680000000000007 1 9 C1.9375 6.375 1.9375 6.375 3 4 C1.6800000000000068 3.339999999999975 0.36000000000001364 2.680000000000007 -1 2 C-0.6700000000000159 1.339999999999975 -0.339999999999975 0.6800000000000068 0 0 Z " fill="#313C54" transform="translate(269,311)"/>
<path d="M0 0 C0.8971874999999727 0.30937499999998863 0.8971874999999727 0.30937499999998863 1.8125 0.625 C0.4821875000000091 1.212812499999984 0.4821875000000091 1.212812499999984 -0.875 1.8125 C-4.298201418389681 3.484062951917963 -4.298201418389681 3.484062951917963 -6.875 6.3125 C-8.019687499999975 7.457187499999975 -8.019687499999975 7.457187499999975 -9.1875 8.625 C-12.1875 8.625 -12.1875 8.625 -14.1875 7.625 C-2.1875 -0.375 -2.1875 -0.375 0 0 Z " fill="#5D8CA7" transform="translate(284.1875,304.375)"/>
<path d="M0 0 C1.5104300936114896 3.020860187222979 1.0394408381961284 4.8619570663135505 0.125 8.0625 C-1 11 -1 11 -3 13 C-3.85637237617226 10.074061048078022 -4.386731044116004 7.918257123706667 -3.17578125 5.04296875 C-2.17852151694359 3.3248826835765044 -1.0942708479592511 1.6579861332715495 0 0 Z " fill="#1E101E" transform="translate(271,316)"/>
<path d="M0 0 C2.0625 0.4375 2.0625 0.4375 4 1 C4.329999999999984 2.319999999999993 4.660000000000025 3.6399999999999864 5 5 C4.236874999999998 4.958750000000009 3.4737499999999955 4.91749999999999 2.6875 4.875 C-0.22718416338062752 4.779191758486775 -0.22718416338062752 4.779191758486775 -3 7 C-1.125 1.125 -1.125 1.125 0 0 Z " fill="#0F111C" transform="translate(254,168)"/>
<path d="M0 0 C2.375 -0.125 2.375 -0.125 5 0 C7 2 7 2 7.125 4.625 C7.083750000000009 5.408749999999998 7.042500000000018 6.1924999999999955 7 7 C5.019999999999982 7.990000000000009 5.019999999999982 7.990000000000009 3 9 C3.329999999999984 7.019999999999982 3.660000000000025 5.0400000000000205 4 3 C2.680000000000007 2.009999999999991 1.3600000000000136 1.0199999999999818 0 0 Z " fill="#4CD7ED" transform="translate(254,345)"/>
<path d="M0 0 C2.4375 1.125 2.4375 1.125 5 3 C5.8125 6.1875 5.8125 6.1875 6 9 C5.6699999999999875 8.339999999999975 5.340000000000003 7.680000000000007 5 7 C4.009999999999991 6.670000000000016 3.0200000000000102 6.339999999999975 2 6 C0.8125 2.9375 0.8125 2.9375 0 0 Z " fill="#3F2933" transform="translate(240,320)"/>
<path d="M0 0 C4.289999999999992 0 8.580000000000013 0 13 0 C13.330000000000013 0.9900000000000091 13.659999999999997 1.9800000000000182 14 3 C10.3680450350532 4.210651654982257 8.934683707699577 3.6278481493234267 5.3125 2.5625 C4.318632812499999 2.2750390625000136 3.3247656249999977 1.9875781250000273 2.30078125 1.69140625 C1.5415234374999898 1.4632421874999864 0.782265625000008 1.2350781249999727 0 1 C0 0.6700000000000159 0 0.339999999999975 0 0 Z " fill="#15F8FE" transform="translate(194,265)"/>
<path d="M0 0 C-1.0061768176673525 2.6757669217087994 -1.5421454649009547 3.7785108025152567 -4.1640625 5.046875 C-4.976171875000006 5.278906250000006 -5.788281250000011 5.510937500000011 -6.625 5.75 C-7.850898437500007 6.113515624999991 -7.850898437500007 6.113515624999991 -9.1015625 6.484375 C-10.041289062499999 6.739609374999986 -10.041289062499999 6.739609374999986 -11 7 C-11 6.340000000000003 -11 5.680000000000007 -11 5 C-9.544624324595588 4.161511956557121 -8.0855962675424 3.3293606566486744 -6.625 2.5 C-5.812890624999994 2.0359374999999886 -5.000781249999989 1.5718750000000057 -4.1640625 1.09375 C-2 0 -2 0 0 0 Z " fill="#385F84" transform="translate(217,215)"/>
<path d="M0 0 C2.5003773418247874 2.1742411668041655 3.4362858578248847 3.7304579753842404 4 7 C4.990000000000009 7 5.980000000000018 7 7 7 C7 8.650000000000006 7 10.300000000000011 7 12 C3.6648861171280487 9.009897898114815 1.78478881019862 6.105014263456837 0 2 C0 1.3400000000000034 0 0.6800000000000068 0 0 Z " fill="#643B42" transform="translate(263,178)"/>
<path d="M0 0 C0.9900000000000091 0.3300000000000125 1.9800000000000182 0.6599999999999966 3 1 C3.94921875 3.28515625 3.94921875 3.28515625 4.6875 6.0625 C4.938867187500023 6.981601562500003 5.190234374999989 7.900703125000007 5.44921875 8.84765625 C5.6309765624999955 9.557929687500007 5.812734374999991 10.268203125000014 6 11 C3.1287899814703337 8.305727293536592 1.6117450994439082 5.607239032088785 0 2 C0 1.3400000000000034 0 0.6800000000000068 0 0 Z " fill="#280B13" transform="translate(259,168)"/>
<path d="M0 0 C0 3.589124123990416 -0.6643655419171068 4.108570285866847 -3 6.6875 C-3.556874999999991 7.310117187499998 -4.113749999999982 7.9327343749999955 -4.6875 8.57421875 C-5.120625000000018 9.044726562499989 -5.5537499999999795 9.515234374999977 -6 10 C-6.660000000000025 9.670000000000016 -7.319999999999993 9.339999999999975 -8 9 C-5.360000000000014 6.029999999999973 -2.7200000000000273 3.0600000000000023 0 0 Z " fill="#262F3E" transform="translate(407,256)"/>
<path d="M0 0 C2.0072092289766204 0.2867441755680602 4.008594399940193 0.6186670127544858 6 1 C5.6699999999999875 2.319999999999993 5.340000000000003 3.6399999999999864 5 5 C4.340000000000003 4.339999999999975 3.680000000000007 3.680000000000007 3 3 C2.3400000000000034 3 1.6800000000000068 3 1 3 C0.3400000000000034 3.990000000000009 -0.3199999999999932 4.980000000000018 -1 6 C-1.0427210013209276 4.333880948484193 -1.0406383207578358 2.666171151071751 -1 1 C-0.6699999999999875 0.6700000000000159 -0.3400000000000034 0.339999999999975 0 0 Z " fill="#042E3B" transform="translate(194,310)"/>
<path d="M0 0 C2.4749999999999943 0.9900000000000091 2.4749999999999943 0.9900000000000091 5 2 C5 2.329999999999984 5 2.660000000000025 5 3 C3.3499999999999943 3 1.6999999999999886 3 0 3 C0 3.660000000000025 0 4.319999999999993 0 5 C-0.9900000000000091 5.329999999999984 -1.9799999999999898 5.660000000000025 -3 6 C-1.125 1.125 -1.125 1.125 0 0 Z " fill="#2E5171" transform="translate(206,291)"/>
<path d="M0 0 C2.3100000000000023 0.6599999999999966 4.6200000000000045 1.3199999999999932 7 2 C6.6699999999999875 2.6599999999999966 6.340000000000003 3.319999999999993 6 4 C4.349999999999994 4 2.6999999999999886 4 1 4 C0.6700000000000017 2.680000000000007 0.3400000000000034 1.3600000000000136 0 0 Z " fill="#19F8FD" transform="translate(127,242)"/>
<path d="M0 0 C2.9700000000000273 0 5.939999999999998 0 9 0 C8.339999999999975 1.6500000000000057 7.680000000000007 3.3000000000000114 7 5 C3.535000000000025 3.0200000000000102 3.535000000000025 3.0200000000000102 0 1 C0 0.6699999999999875 0 0.3400000000000034 0 0 Z " fill="#355B84" transform="translate(298,217)"/>
<path d="M0 0 C0.660000000000025 0.3299999999999841 1.3199999999999932 0.660000000000025 2 1 C0.6800000000000068 2.6499999999999773 -0.6399999999999864 4.300000000000011 -2 6 C-3.319999999999993 5.670000000000016 -4.639999999999986 5.339999999999975 -6 5 C-2.25 1.125 -2.25 1.125 0 0 Z " fill="#48424D" transform="translate(289,300)"/>
<path d="M0 0 C1.3199999999999932 0 2.6399999999999864 0 4 0 C3.6699999999999875 1.6500000000000057 3.3400000000000034 3.3000000000000114 3 5 C2.009999999999991 4.670000000000016 1.0200000000000102 4.339999999999975 0 4 C0 2.680000000000007 0 1.3600000000000136 0 0 Z " fill="#1BFAFB" transform="translate(235,254)"/>
<path d="M0 0 C2.3100000000000023 0 4.6200000000000045 0 7 0 C4.440083759859391 2.0113627601104724 1.9540970076519102 3.628454960733052 -1 5 C-1.3300000000000125 4.339999999999975 -1.6599999999999966 3.680000000000007 -2 3 C-1.3400000000000034 3 -0.6800000000000068 3 0 3 C0 2.009999999999991 0 1.0200000000000102 0 0 Z " fill="#24F7FD" transform="translate(194,253)"/>
<path d="M0 0 C3.234754482787423 1.617377241393683 4.705720209401591 2.4762922303417554 7 5 C6.009999999999991 6.485000000000014 6.009999999999991 6.485000000000014 5 8 C2.5250000000000057 4.0400000000000205 2.5250000000000057 4.0400000000000205 0 0 Z " fill="#4686A5" transform="translate(230,305)"/>
<path d="M0 0 C0 3.8669567847309168 -1.41909971122422 6.508845195620154 -3 10 C-3.75 8.375 -3.75 8.375 -4 6 C-2.0625 2.75 -2.0625 2.75 0 0 Z " fill="#38E6F2" transform="translate(108,247)"/>
</svg>
